<?xml version="1.0" encoding="UTF-8"?>
<svg xmlns="http://www.w3.org/2000/svg" xmlns:xlink="http://www.w3.org/1999/xlink" viewBox="0 0 32 32" width="32px" height="32px">
<g id="surface61247013">
<path style=" stroke:none;fill-rule:nonzero;fill:rgb(100%,100%,100%);fill-opacity:1;" d="M 11.105469 4.800781 C 11.007812 4.800781 10.914062 4.804688 10.820312 4.8125 C 10.445312 4.84375 10.101562 4.949219 9.789062 5.132812 C 8.996094 5.597656 8.542969 6.503906 8.394531 7.679688 C 8.25 8.820312 8.398438 10.230469 8.785156 11.800781 C 7.230469 12.242188 5.933594 12.816406 5.019531 13.511719 C 4.078125 14.226562 3.519531 15.074219 3.519531 16 C 3.519531 16.925781 4.078125 17.773438 5.019531 18.488281 C 5.933594 19.183594 7.230469 19.757812 8.785156 20.199219 C 8.398438 21.769531 8.25 23.179688 8.394531 24.320312 C 8.542969 25.496094 8.996094 26.402344 9.789062 26.867188 C 10.171875 27.089844 10.601562 27.203125 11.074219 27.203125 C 11.371094 27.203125 11.683594 27.15625 12.011719 27.070312 C 13.246094 26.738281 14.617188 25.789062 16 24.433594 C 17.382812 25.789062 18.753906 26.738281 19.988281 27.070312 C 20.316406 27.15625 20.628906 27.203125 20.925781 27.203125 C 21.394531 27.203125 21.828125 27.089844 22.210938 26.867188 C 23.003906 26.402344 23.457031 25.496094 23.605469 24.320312 C 23.746094 23.179688 23.601562 21.769531 23.214844 20.199219 C 24.769531 19.757812 26.066406 19.183594 26.980469 18.488281 C 27.921875 17.773438 28.480469 16.925781 28.480469 16 C 28.480469 15.074219 27.921875 14.226562 26.980469 13.511719 C 26.066406 12.816406 24.769531 12.242188 23.214844 11.800781 C 23.601562 10.234375 23.75 8.820312 23.605469 7.679688 C 23.457031 6.503906 23.003906 5.597656 22.210938 5.132812 C 21.585938 4.769531 20.828125 4.707031 19.988281 4.929688 C 18.753906 5.261719 17.382812 6.210938 16 7.566406 C 14.617188 6.210938 13.246094 5.261719 12.011719 4.929688 C 11.695312 4.847656 11.394531 4.800781 11.105469 4.800781 Z M 11.101562 5.117188 C 11.359375 5.121094 11.636719 5.164062 11.929688 5.242188 C 13.105469 5.554688 14.492188 6.496094 15.886719 7.886719 C 15.949219 7.949219 16.050781 7.949219 16.113281 7.886719 C 17.507812 6.496094 18.894531 5.554688 20.070312 5.242188 C 20.851562 5.03125 21.507812 5.09375 22.046875 5.410156 C 22.730469 5.808594 23.144531 6.601562 23.285156 7.71875 C 23.429688 8.835938 23.289062 10.261719 22.878906 11.863281 C 22.859375 11.949219 22.90625 12.035156 22.992188 12.058594 C 24.585938 12.496094 25.890625 13.085938 26.785156 13.765625 C 27.679688 14.445312 28.160156 15.203125 28.160156 16 C 28.160156 16.796875 27.679688 17.554688 26.785156 18.234375 C 25.890625 18.914062 24.585938 19.5 22.992188 19.941406 C 22.90625 19.964844 22.859375 20.050781 22.878906 20.136719 C 23.289062 21.738281 23.429688 23.164062 23.285156 24.28125 C 23.144531 25.398438 22.730469 26.191406 22.046875 26.589844 C 21.71875 26.785156 21.347656 26.882812 20.925781 26.882812 C 20.660156 26.882812 20.375 26.839844 20.070312 26.757812 L 20.070312 26.761719 C 18.894531 26.445312 17.507812 25.503906 16.113281 24.113281 C 16.050781 24.050781 15.949219 24.050781 15.886719 24.113281 C 14.492188 25.503906 13.105469 26.445312 11.929688 26.761719 L 11.929688 26.757812 C 11.625 26.839844 11.339844 26.882812 11.074219 26.882812 C 10.652344 26.882812 10.28125 26.785156 9.953125 26.589844 C 9.269531 26.191406 8.855469 25.398438 8.714844 24.28125 C 8.570312 23.164062 8.710938 21.738281 9.121094 20.136719 C 9.140625 20.050781 9.09375 19.964844 9.007812 19.941406 C 7.414062 19.5 6.109375 18.914062 5.214844 18.234375 C 4.320312 17.554688 3.839844 16.796875 3.839844 16 C 3.839844 15.203125 4.320312 14.445312 5.214844 13.765625 C 6.109375 13.085938 7.414062 12.496094 9.007812 12.058594 C 9.09375 12.035156 9.140625 11.949219 9.121094 11.863281 C 8.710938 10.261719 8.570312 8.835938 8.714844 7.71875 C 8.855469 6.601562 9.269531 5.808594 9.953125 5.410156 C 10.222656 5.25 10.519531 5.15625 10.851562 5.128906 C 10.933594 5.121094 11.015625 5.117188 11.101562 5.117188 Z M 11.078125 5.761719 C 10.777344 5.761719 10.507812 5.824219 10.273438 5.960938 C 9.710938 6.292969 9.40625 7.023438 9.320312 8.011719 C 9.238281 8.996094 9.375 10.261719 9.746094 11.710938 C 9.765625 11.796875 9.851562 11.847656 9.933594 11.828125 C 10.941406 11.601562 12.042969 11.429688 13.214844 11.324219 C 13.261719 11.320312 13.304688 11.296875 13.332031 11.257812 C 14.019531 10.265625 14.734375 9.363281 15.453125 8.574219 C 15.511719 8.511719 15.507812 8.414062 15.449219 8.355469 C 14.152344 7.054688 12.878906 6.15625 11.761719 5.859375 C 11.519531 5.792969 11.292969 5.761719 11.078125 5.761719 Z M 20.921875 5.761719 C 20.707031 5.761719 20.480469 5.792969 20.238281 5.859375 C 19.121094 6.15625 17.847656 7.054688 16.550781 8.355469 C 16.492188 8.414062 16.488281 8.511719 16.546875 8.574219 C 17.265625 9.363281 17.980469 10.265625 18.667969 11.257812 C 18.695312 11.296875 18.738281 11.320312 18.785156 11.324219 C 19.957031 11.429688 21.058594 11.601562 22.066406 11.828125 C 22.148438 11.847656 22.234375 11.796875 22.253906 11.710938 C 22.625 10.261719 22.761719 8.996094 22.679688 8.011719 C 22.59375 7.023438 22.289062 6.292969 21.726562 5.960938 C 21.492188 5.824219 21.222656 5.761719 20.921875 5.761719 Z M 11.078125 6.078125 C 11.257812 6.078125 11.460938 6.109375 11.679688 6.167969 C 12.667969 6.433594 13.878906 7.273438 15.113281 8.488281 C 14.433594 9.246094 13.761719 10.089844 13.113281 11.015625 C 12.015625 11.117188 10.988281 11.28125 10.027344 11.488281 C 9.691406 10.128906 9.5625 8.9375 9.640625 8.035156 C 9.71875 7.101562 10.007812 6.488281 10.433594 6.238281 C 10.613281 6.132812 10.824219 6.078125 11.078125 6.078125 Z M 20.921875 6.078125 C 21.175781 6.078125 21.386719 6.132812 21.5625 6.238281 C 21.566406 6.238281 21.566406 6.238281 21.566406 6.238281 C 21.992188 6.488281 22.28125 7.101562 22.359375 8.039062 C 22.4375 8.9375 22.308594 10.128906 21.972656 11.492188 C 21.011719 11.28125 19.984375 11.117188 18.886719 11.015625 C 18.238281 10.085938 17.566406 9.246094 16.886719 8.488281 C 18.121094 7.273438 19.332031 6.433594 20.320312 6.167969 C 20.539062 6.109375 20.742188 6.078125 20.921875 6.078125 Z M 15.988281 9.007812 C 15.949219 9.007812 15.910156 9.027344 15.882812 9.058594 C 15.355469 9.640625 14.828125 10.289062 14.3125 10.984375 C 14.277344 11.035156 14.273438 11.101562 14.300781 11.15625 C 14.332031 11.210938 14.390625 11.242188 14.453125 11.238281 C 14.957031 11.214844 15.472656 11.199219 16 11.199219 C 16.527344 11.199219 17.042969 11.214844 17.546875 11.238281 C 17.609375 11.242188 17.667969 11.210938 17.699219 11.15625 C 17.726562 11.101562 17.722656 11.035156 17.6875 10.984375 C 17.171875 10.285156 16.644531 9.640625 16.117188 9.058594 C 16.085938 9.023438 16.039062 9.003906 15.988281 9.007812 Z M 16 9.417969 C 16.40625 9.878906 16.8125 10.382812 17.214844 10.910156 C 16.8125 10.894531 16.414062 10.878906 16 10.878906 C 15.585938 10.878906 15.1875 10.894531 14.785156 10.910156 C 15.1875 10.382812 15.59375 9.878906 16 9.417969 Z M 16 11.839844 C 15.214844 11.839844 14.457031 11.871094 13.730469 11.925781 C 13.679688 11.929688 13.636719 11.953125 13.609375 11.996094 C 13.199219 12.601562 12.800781 13.242188 12.421875 13.90625 C 12.027344 14.59375 11.675781 15.269531 11.359375 15.929688 C 11.339844 15.976562 11.339844 16.027344 11.359375 16.070312 C 11.675781 16.730469 12.027344 17.40625 12.421875 18.09375 C 12.800781 18.761719 13.199219 19.398438 13.609375 20.003906 C 13.636719 20.046875 13.679688 20.070312 13.730469 20.074219 C 14.457031 20.128906 15.214844 20.160156 16 20.160156 C 16.785156 20.160156 17.542969 20.128906 18.273438 20.074219 C 18.320312 20.070312 18.363281 20.046875 18.390625 20.003906 C 18.800781 19.398438 19.203125 18.761719 19.582031 18.09375 C 19.972656 17.40625 20.324219 16.730469 20.640625 16.070312 C 20.660156 16.027344 20.660156 15.976562 20.640625 15.929688 C 20.324219 15.269531 19.972656 14.59375 19.582031 13.90625 C 19.199219 13.238281 18.800781 12.601562 18.390625 11.996094 C 18.363281 11.953125 18.320312 11.929688 18.269531 11.925781 C 17.542969 11.871094 16.785156 11.839844 16 11.839844 Z M 12.523438 12.042969 C 12.515625 12.039062 12.503906 12.042969 12.496094 12.042969 C 11.652344 12.144531 10.863281 12.28125 10.128906 12.441406 C 10.085938 12.453125 10.046875 12.480469 10.023438 12.519531 C 10.003906 12.558594 9.996094 12.605469 10.011719 12.644531 C 10.234375 13.371094 10.511719 14.136719 10.847656 14.929688 C 10.871094 14.984375 10.925781 15.023438 10.988281 15.027344 C 11.050781 15.027344 11.109375 14.996094 11.136719 14.9375 C 11.363281 14.492188 11.605469 14.039062 11.863281 13.589844 C 12.121094 13.140625 12.382812 12.710938 12.652344 12.285156 C 12.683594 12.238281 12.683594 12.175781 12.65625 12.125 C 12.632812 12.074219 12.578125 12.042969 12.523438 12.042969 Z M 19.484375 12.042969 C 19.480469 12.042969 19.476562 12.042969 19.46875 12.042969 C 19.414062 12.046875 19.363281 12.078125 19.339844 12.128906 C 19.316406 12.179688 19.320312 12.238281 19.347656 12.289062 C 19.617188 12.710938 19.882812 13.140625 20.136719 13.589844 C 20.394531 14.039062 20.636719 14.492188 20.863281 14.9375 C 20.890625 14.996094 20.949219 15.027344 21.011719 15.027344 C 21.074219 15.023438 21.128906 14.984375 21.152344 14.929688 C 21.488281 14.136719 21.765625 13.375 21.988281 12.648438 C 22.003906 12.605469 22 12.558594 21.976562 12.519531 C 21.953125 12.480469 21.917969 12.453125 21.871094 12.441406 C 21.140625 12.28125 20.347656 12.144531 19.503906 12.042969 C 19.496094 12.042969 19.492188 12.042969 19.484375 12.042969 Z M 16 12.160156 C 16.75 12.160156 17.472656 12.191406 18.167969 12.238281 C 18.558594 12.824219 18.941406 13.429688 19.300781 14.0625 C 19.675781 14.71875 20.011719 15.367188 20.3125 16 C 20.011719 16.632812 19.675781 17.28125 19.300781 17.9375 C 18.941406 18.570312 18.558594 19.175781 18.167969 19.761719 C 17.472656 19.808594 16.75 19.839844 16 19.839844 C 15.25 19.839844 14.527344 19.808594 13.832031 19.761719 C 13.441406 19.175781 13.058594 18.570312 12.699219 17.9375 C 12.324219 17.28125 11.988281 16.632812 11.6875 16 C 11.988281 15.367188 12.324219 14.71875 12.699219 14.0625 C 13.058594 13.429688 13.441406 12.824219 13.832031 12.238281 C 14.527344 12.191406 15.25 12.160156 16 12.160156 Z M 12.199219 12.417969 C 11.992188 12.75 11.785156 13.082031 11.585938 13.429688 C 11.386719 13.78125 11.203125 14.128906 11.019531 14.476562 C 10.777344 13.875 10.558594 13.285156 10.378906 12.722656 C 10.949219 12.601562 11.5625 12.503906 12.199219 12.417969 Z M 19.800781 12.417969 C 20.4375 12.503906 21.050781 12.601562 21.621094 12.726562 C 21.441406 13.285156 21.222656 13.875 20.976562 14.476562 C 20.796875 14.128906 20.613281 13.78125 20.414062 13.429688 C 20.214844 13.082031 20.007812 12.75 19.800781 12.417969 Z M 9.222656 12.671875 C 9.210938 12.671875 9.199219 12.675781 9.183594 12.675781 C 7.742188 13.074219 6.582031 13.582031 5.769531 14.148438 C 4.957031 14.714844 4.480469 15.34375 4.480469 16 C 4.480469 16.65625 4.957031 17.285156 5.769531 17.851562 C 6.582031 18.417969 7.742188 18.925781 9.183594 19.324219 C 9.269531 19.34375 9.355469 19.296875 9.378906 19.214844 C 9.6875 18.210938 10.09375 17.152344 10.589844 16.066406 C 10.609375 16.023438 10.609375 15.976562 10.589844 15.933594 C 10.09375 14.847656 9.6875 13.789062 9.378906 12.785156 C 9.359375 12.714844 9.292969 12.671875 9.222656 12.671875 Z M 22.765625 12.671875 C 22.699219 12.675781 22.640625 12.71875 22.621094 12.785156 C 22.3125 13.789062 21.90625 14.847656 21.410156 15.933594 C 21.390625 15.976562 21.390625 16.023438 21.410156 16.066406 C 21.90625 17.152344 22.3125 18.210938 22.621094 19.214844 C 22.644531 19.296875 22.730469 19.34375 22.816406 19.324219 C 24.257812 18.925781 25.417969 18.417969 26.230469 17.851562 C 27.042969 17.285156 27.519531 16.65625 27.519531 16 C 27.519531 15.34375 27.042969 14.714844 26.230469 14.148438 C 25.417969 13.582031 24.257812 13.074219 22.816406 12.675781 C 22.800781 12.671875 22.785156 12.671875 22.765625 12.671875 Z M 9.132812 13.03125 C 9.433594 13.984375 9.808594 14.980469 10.273438 16 C 9.808594 17.019531 9.433594 18.015625 9.132812 18.96875 C 7.789062 18.582031 6.691406 18.105469 5.953125 17.589844 C 5.1875 17.054688 4.800781 16.496094 4.800781 16 C 4.800781 15.503906 5.1875 14.945312 5.953125 14.410156 C 6.691406 13.894531 7.789062 13.417969 9.132812 13.03125 Z M 22.867188 13.03125 C 24.210938 13.417969 25.308594 13.894531 26.046875 14.410156 C 26.8125 14.945312 27.199219 15.503906 27.199219 16 C 27.199219 16.496094 26.8125 17.054688 26.046875 17.589844 C 25.308594 18.105469 24.210938 18.582031 22.867188 18.96875 C 22.566406 18.015625 22.191406 17.019531 21.726562 16 C 22.191406 14.980469 22.566406 13.984375 22.867188 13.03125 Z M 16 13.441406 C 14.589844 13.441406 13.441406 14.589844 13.441406 16 C 13.441406 17.410156 14.589844 18.558594 16 18.558594 C 17.410156 18.558594 18.558594 17.410156 18.558594 16 C 18.558594 14.589844 17.410156 13.441406 16 13.441406 Z M 16 14.078125 C 17.0625 14.078125 17.921875 14.9375 17.921875 16 C 17.921875 17.0625 17.0625 17.921875 16 17.921875 C 14.9375 17.921875 14.078125 17.0625 14.078125 16 C 14.078125 14.9375 14.9375 14.078125 16 14.078125 Z M 10.992188 16.972656 C 10.929688 16.972656 10.871094 17.011719 10.847656 17.070312 C 10.511719 17.863281 10.234375 18.628906 10.011719 19.351562 C 9.996094 19.394531 10 19.441406 10.023438 19.480469 C 10.046875 19.519531 10.082031 19.546875 10.128906 19.558594 C 10.859375 19.71875 11.652344 19.855469 12.496094 19.957031 C 12.558594 19.964844 12.617188 19.9375 12.652344 19.882812 C 12.683594 19.832031 12.683594 19.765625 12.652344 19.710938 C 12.382812 19.289062 12.117188 18.859375 11.863281 18.410156 C 11.605469 17.960938 11.363281 17.511719 11.136719 17.0625 C 11.109375 17.007812 11.054688 16.972656 10.992188 16.972656 Z M 21 16.972656 C 20.941406 16.976562 20.890625 17.011719 20.863281 17.0625 C 20.636719 17.511719 20.394531 17.960938 20.136719 18.410156 C 19.882812 18.859375 19.617188 19.289062 19.347656 19.710938 C 19.316406 19.765625 19.316406 19.832031 19.347656 19.882812 C 19.382812 19.9375 19.441406 19.964844 19.503906 19.957031 C 20.347656 19.855469 21.136719 19.71875 21.871094 19.558594 C 21.914062 19.546875 21.953125 19.519531 21.976562 19.480469 C 22 19.441406 22.003906 19.394531 21.988281 19.351562 C 21.765625 18.628906 21.488281 17.863281 21.152344 17.070312 C 21.128906 17.011719 21.066406 16.972656 21 16.972656 Z M 11.023438 17.523438 C 11.203125 17.871094 11.386719 18.21875 11.585938 18.570312 C 11.785156 18.917969 11.992188 19.25 12.199219 19.582031 C 11.5625 19.496094 10.949219 19.398438 10.378906 19.273438 C 10.558594 18.714844 10.777344 18.125 11.023438 17.523438 Z M 20.976562 17.523438 C 21.222656 18.125 21.441406 18.714844 21.621094 19.273438 C 21.050781 19.398438 20.4375 19.496094 19.800781 19.582031 C 20.007812 19.25 20.214844 18.917969 20.414062 18.570312 C 20.613281 18.21875 20.796875 17.871094 20.976562 17.523438 Z M 22.101562 20.167969 C 22.089844 20.167969 22.078125 20.167969 22.0625 20.171875 C 21.058594 20.398438 19.957031 20.570312 18.785156 20.675781 C 18.738281 20.679688 18.695312 20.703125 18.667969 20.742188 C 17.980469 21.734375 17.265625 22.636719 16.546875 23.425781 C 16.488281 23.488281 16.492188 23.585938 16.550781 23.644531 C 17.847656 24.945312 19.121094 25.84375 20.238281 26.140625 C 20.816406 26.296875 21.328125 26.269531 21.726562 26.039062 C 22.289062 25.707031 22.59375 24.976562 22.679688 23.988281 C 22.761719 23.003906 22.625 21.738281 22.253906 20.289062 C 22.238281 20.21875 22.175781 20.167969 22.101562 20.167969 Z M 9.902344 20.167969 C 9.828125 20.167969 9.761719 20.214844 9.746094 20.289062 C 9.375 21.738281 9.238281 23.003906 9.320312 23.988281 C 9.40625 24.976562 9.710938 25.707031 10.273438 26.039062 C 10.675781 26.269531 11.183594 26.296875 11.761719 26.140625 C 12.878906 25.84375 14.152344 24.945312 15.449219 23.644531 C 15.507812 23.585938 15.511719 23.488281 15.453125 23.425781 C 14.734375 22.636719 14.019531 21.734375 13.332031 20.742188 C 13.304688 20.703125 13.261719 20.679688 13.214844 20.675781 C 12.042969 20.570312 10.941406 20.398438 9.933594 20.171875 C 9.925781 20.171875 9.914062 20.167969 9.902344 20.167969 Z M 21.972656 20.507812 C 22.308594 21.871094 22.4375 23.0625 22.359375 23.964844 C 22.28125 24.898438 21.992188 25.511719 21.566406 25.761719 C 21.257812 25.941406 20.847656 25.972656 20.320312 25.832031 C 19.332031 25.566406 18.121094 24.726562 16.886719 23.511719 C 17.566406 22.753906 18.238281 21.914062 18.886719 20.984375 C 19.984375 20.882812 21.011719 20.71875 21.972656 20.507812 Z M 10.027344 20.511719 C 10.988281 20.71875 12.015625 20.882812 13.113281 20.984375 C 13.761719 21.914062 14.433594 22.757812 15.113281 23.511719 C 13.878906 24.726562 12.667969 25.566406 11.679688 25.832031 C 11.152344 25.972656 10.742188 25.941406 10.433594 25.761719 C 10.007812 25.511719 9.71875 24.898438 9.640625 23.964844 C 9.5625 23.0625 9.691406 21.871094 10.027344 20.511719 Z M 14.433594 20.761719 C 14.375 20.765625 14.324219 20.800781 14.300781 20.851562 C 14.273438 20.90625 14.28125 20.96875 14.3125 21.015625 C 14.828125 21.714844 15.355469 22.359375 15.882812 22.941406 C 15.910156 22.976562 15.953125 22.992188 16 22.992188 C 16.046875 22.992188 16.089844 22.976562 16.117188 22.941406 C 16.644531 22.359375 17.171875 21.710938 17.6875 21.015625 C 17.722656 20.964844 17.726562 20.898438 17.699219 20.84375 C 17.667969 20.789062 17.609375 20.757812 17.546875 20.761719 C 17.042969 20.785156 16.527344 20.800781 16 20.800781 C 15.472656 20.800781 14.957031 20.785156 14.453125 20.761719 C 14.445312 20.761719 14.441406 20.761719 14.433594 20.761719 Z M 14.785156 21.089844 C 15.1875 21.105469 15.585938 21.121094 16 21.121094 C 16.414062 21.121094 16.8125 21.105469 17.214844 21.089844 C 16.8125 21.617188 16.40625 22.121094 16 22.582031 C 15.59375 22.121094 15.1875 21.617188 14.785156 21.089844 Z M 14.785156 21.089844 "/>
</g>
</svg>
