<?xml version="1.0" encoding="UTF-8"?>
<svg xmlns="http://www.w3.org/2000/svg" xmlns:xlink="http://www.w3.org/1999/xlink" viewBox="0 0 32 32" width="32px" height="32px">
<g id="surface60346774">
<path style=" stroke:none;fill-rule:nonzero;fill:rgb(6.666667%,6.666667%,6.666667%);fill-opacity:1;" d="M 28 11.535156 C 28 25.199219 16 29.332031 16 29.332031 C 16 29.332031 4 25.199219 4 11.535156 C 4 9.867188 4.132812 8.464844 4.265625 7.332031 C 4.464844 5.667969 5.601562 4.332031 7.199219 3.933594 C 9.265625 3.332031 12.535156 2.667969 16 2.667969 C 19.464844 2.667969 22.734375 3.332031 24.867188 3.933594 C 26.464844 4.332031 27.601562 5.734375 27.800781 7.332031 C 27.867188 8.464844 28 9.933594 28 11.535156 Z M 28 11.535156 "/>
<path style=" stroke:none;fill-rule:nonzero;fill:rgb(29.803923%,68.627453%,31.37255%);fill-opacity:1;" d="M 16 4.667969 C 19.265625 4.667969 22.332031 5.332031 24.332031 5.867188 C 25.132812 6.066406 25.667969 6.734375 25.800781 7.601562 C 25.933594 8.867188 26 10.199219 26 11.535156 C 26 21.933594 18.332031 26.132812 16 27.132812 C 13.667969 26.066406 6 21.867188 6 11.535156 C 6 10.199219 6.066406 8.867188 6.199219 7.601562 C 6.265625 6.734375 6.867188 6.066406 7.667969 5.867188 C 9.667969 5.332031 12.734375 4.667969 16 4.667969 M 16 2.667969 C 12.535156 2.667969 9.265625 3.332031 7.132812 3.933594 C 5.601562 4.332031 4.398438 5.734375 4.265625 7.332031 C 4.132812 8.464844 4 9.933594 4 11.535156 C 4 25.199219 16 29.332031 16 29.332031 C 16 29.332031 28 25.199219 28 11.535156 C 28 9.867188 27.867188 8.464844 27.734375 7.332031 C 27.535156 5.667969 26.398438 4.332031 24.800781 3.933594 C 22.734375 3.332031 19.464844 2.667969 16 2.667969 Z M 16 2.667969 "/>
<path style=" stroke:none;fill-rule:nonzero;fill:rgb(86.274511%,92.941177%,78.431374%);fill-opacity:1;" d="M 15.332031 18.667969 L 16.667969 18.667969 L 16.667969 24 L 15.332031 24 Z M 15.332031 18.667969 "/>
<path style=" stroke:none;fill-rule:nonzero;fill:rgb(29.803923%,68.627453%,31.37255%);fill-opacity:1;" d="M 16 6.667969 C 16 6.667969 12 10 12 15.332031 C 12 18.800781 14.199219 21 15.332031 22 L 16 20 L 16.667969 22 C 17.800781 21 20 18.800781 20 15.332031 C 20 10 16 6.667969 16 6.667969 Z M 16 6.667969 "/>
<path style=" stroke:none;fill-rule:nonzero;fill:rgb(50.588238%,78.039217%,51.764709%);fill-opacity:1;" d="M 16 6.667969 C 16 6.667969 12 10 12 15.332031 C 12 18.800781 14.199219 21 15.332031 22 L 16 20 Z M 16 6.667969 "/>
</g>
</svg>
