<?xml version="1.0" encoding="UTF-8"?>
<svg xmlns="http://www.w3.org/2000/svg" xmlns:xlink="http://www.w3.org/1999/xlink" viewBox="0 0 32 32" width="32px" height="32px">
<g id="surface60446443">
<path style=" stroke:none;fill-rule:nonzero;fill:rgb(100%,100%,100%);fill-opacity:1;" d="M 27.125 3.554688 C 26.921875 3.328125 26.632812 3.199219 26.328125 3.199219 L 5.671875 3.199219 C 5.367188 3.199219 5.078125 3.328125 4.875 3.554688 C 4.675781 3.78125 4.578125 4.082031 4.609375 4.382812 L 6.960938 25.527344 C 7.007812 25.957031 7.3125 26.316406 7.726562 26.4375 L 15.707031 28.714844 C 15.800781 28.742188 15.902344 28.757812 16 28.757812 C 16.097656 28.757812 16.195312 28.742188 16.292969 28.714844 L 24.269531 26.4375 C 24.6875 26.316406 24.988281 25.957031 25.039062 25.527344 L 27.386719 4.382812 C 27.421875 4.082031 27.324219 3.78125 27.125 3.554688 Z M 21.882812 13.945312 L 21.40625 21.714844 L 16.035156 23.472656 L 10.660156 21.714844 L 10.457031 18 L 13.175781 18 L 13.246094 19.691406 L 16.035156 20.636719 L 18.824219 19.691406 L 19.027344 16.648438 L 13.042969 16.648438 L 12.90625 13.945312 L 19.164062 13.945312 L 19.367188 11.242188 L 9.980469 11.242188 L 9.777344 8.539062 L 22.222656 8.539062 Z M 21.882812 13.945312 "/>
</g>
</svg>
