<?xml version="1.0" encoding="UTF-8"?>
<svg xmlns="http://www.w3.org/2000/svg" xmlns:xlink="http://www.w3.org/1999/xlink" viewBox="0 0 32 32" width="32px" height="32px">
<g id="surface61336630">
<path style=" stroke:none;fill-rule:nonzero;fill:rgb(100%,100%,100%);fill-opacity:1;" d="M 28.976562 1.488281 C 28.855469 1.355469 28.683594 1.28125 28.503906 1.28125 L 3.496094 1.28125 C 3.316406 1.28125 3.144531 1.355469 3.023438 1.488281 C 2.902344 1.621094 2.84375 1.796875 2.859375 1.976562 L 5.113281 27.210938 C 5.136719 27.472656 5.320312 27.695312 5.574219 27.769531 L 15.820312 30.695312 C 15.878906 30.710938 15.9375 30.71875 15.996094 30.71875 C 16.054688 30.71875 16.113281 30.710938 16.171875 30.695312 L 26.425781 27.769531 C 26.679688 27.695312 26.867188 27.472656 26.890625 27.210938 L 29.140625 1.976562 C 29.15625 1.796875 29.097656 1.621094 28.976562 1.488281 Z M 7.679688 18.5625 L 12.160156 19.804688 L 12.160156 7.039062 L 14.71875 7.039062 L 14.71875 23.679688 L 7.679688 21.726562 Z M 24.355469 14.078125 L 23.679688 21.921875 L 17.28125 23.679688 L 17.28125 20.734375 L 21.601562 19.546875 L 21.761719 17.148438 L 17.28125 17.921875 L 17.28125 7.039062 L 24.960938 7.039062 L 24.738281 9.601562 L 19.839844 9.601562 L 19.839844 14.71875 Z M 24.355469 14.078125 "/>
</g>
</svg>
