<?xml version="1.0" encoding="UTF-8"?>
<svg xmlns="http://www.w3.org/2000/svg" xmlns:xlink="http://www.w3.org/1999/xlink" viewBox="0 0 32 32" width="32px" height="32px">
<g id="surface61338616">
<path style=" stroke:none;fill-rule:nonzero;fill:rgb(100%,100%,100%);fill-opacity:1;" d="M 17.332031 2.667969 C 12.375 2.667969 11.089844 6.4375 10.65625 8.625 C 11.25 8.371094 12.714844 8 13.332031 8 L 13.359375 8 C 14.886719 8.011719 15.359375 8.441406 15.667969 9.855469 C 15.890625 10.890625 16.003906 12.503906 16 13.332031 C 15.996094 15.144531 15.558594 16.394531 15.234375 17.234375 L 15.128906 17.503906 C 15.050781 17.730469 14.957031 17.9375 14.875 18.128906 C 14.792969 18.332031 14.71875 18.511719 14.667969 18.667969 C 14.988281 18.738281 15.246094 18.84375 15.417969 18.917969 L 15.515625 18.964844 C 15.546875 18.980469 15.578125 18.988281 15.605469 19.011719 C 16.171875 19.355469 16 20.144531 16 20.769531 C 16 21.292969 16.015625 23.363281 16 25.339844 C 16.058594 26.191406 16.277344 26.910156 16.464844 27.4375 C 16.738281 28.175781 17.359375 29.277344 18.667969 29.332031 C 19.699219 29.378906 21.1875 28.839844 21.332031 26.671875 L 21.332031 21.339844 C 21.433594 19.558594 23.472656 18.847656 24 18.457031 C 23.925781 18.359375 23.644531 17.488281 23.347656 17.027344 L 23.292969 16.917969 C 23.25 16.8125 23.140625 16.625 23.003906 16.375 C 22.21875 14.949219 20.574219 11.285156 21.699219 9.410156 C 22.1875 8.589844 22.667969 8.113281 24 8 C 23.457031 6.453125 21.957031 2.746094 17.332031 2.667969 Z M 8.582031 2.667969 C 6.089844 2.761719 2.667969 4.308594 2.667969 9.347656 C 2.667969 12.765625 4.988281 22.667969 8.65625 22.667969 C 8.824219 22.667969 8.988281 22.609375 9.160156 22.519531 C 8.839844 22.238281 8.605469 21.875 8.574219 21.394531 C 8.515625 20.425781 9.21875 19.746094 10.734375 19.359375 C 10.808594 19.347656 11.191406 19.234375 12.042969 18.753906 C 11.59375 18.5625 11.125 18.300781 10.738281 17.902344 C 9.683594 16.796875 9.144531 15.25 9.34375 13.859375 C 9.53125 12.503906 9.421875 11.175781 9.363281 10.46875 L 9.359375 10.402344 L 9.34375 10.167969 L 9.3125 9.675781 L 9.355469 8.363281 C 9.785156 6.144531 10.691406 4.425781 12 3.238281 C 11.011719 2.917969 9.765625 2.625 8.582031 2.667969 Z M 22.578125 2.671875 C 22.324219 2.675781 22.082031 2.699219 21.847656 2.722656 C 23.1875 3.65625 24.417969 5.160156 25.253906 7.5625 L 25.3125 9.394531 C 25.316406 9.457031 25.328125 9.519531 25.339844 9.582031 C 25.378906 9.8125 25.433594 10.125 25.390625 10.5 C 25.339844 10.925781 25.285156 11.363281 25.269531 11.800781 C 25.261719 12.234375 25.316406 12.65625 25.378906 13.105469 C 25.496094 13.902344 25.433594 14.707031 25.183594 15.574219 L 24.792969 16.917969 C 24.894531 17.144531 24.996094 17.378906 25.09375 17.625 C 25.113281 17.6875 25.136719 17.734375 25.152344 17.777344 L 25.589844 18.378906 C 27.941406 16.308594 29.332031 11.96875 29.332031 7.5 C 29.332031 6.636719 29.097656 5.96875 28.796875 5.582031 C 27.011719 3.296875 24.535156 2.640625 22.578125 2.671875 Z M 13.332031 9.332031 C 12.957031 9.332031 11.667969 9.640625 11.175781 9.847656 L 10.699219 10.050781 C 10.6875 10.0625 10.675781 10.074219 10.671875 10.082031 C 10.675781 10.15625 10.6875 10.246094 10.699219 10.355469 C 10.753906 11.121094 10.871094 12.542969 10.660156 14.046875 C 10.519531 15.035156 10.921875 16.160156 11.707031 16.980469 C 12.15625 17.449219 12.957031 17.753906 13.542969 17.886719 C 13.578125 17.792969 13.609375 17.714844 13.652344 17.609375 C 13.722656 17.433594 13.808594 17.246094 13.886719 17.035156 L 13.988281 16.753906 C 14.222656 16.144531 14.660156 15.003906 14.667969 13.328125 C 14.671875 12.777344 14.609375 11.769531 14.496094 10.910156 C 14.480469 10.933594 14.46875 10.933594 14.457031 10.957031 C 14.261719 11.15625 13.953125 11.332031 13.613281 11.28125 C 13.0625 11.191406 12.640625 10.519531 12.667969 10.269531 C 12.699219 10.027344 13.171875 9.894531 13.722656 9.984375 C 13.910156 10.015625 14.089844 10.074219 14.234375 10.136719 C 14.285156 10.175781 14.328125 10.203125 14.375 10.234375 C 14.371094 10.203125 14.371094 10.167969 14.359375 10.136719 C 14.234375 9.546875 14.128906 9.4375 14.125 9.433594 C 14.121094 9.425781 13.980469 9.339844 13.332031 9.332031 Z M 23.980469 9.347656 C 23.332031 9.425781 23.152344 9.597656 22.917969 9.980469 C 23.371094 9.980469 23.699219 10.128906 23.734375 10.410156 C 23.769531 10.652344 23.566406 10.878906 23.480469 10.96875 C 23.292969 11.144531 23.058594 11.265625 22.824219 11.292969 C 22.78125 11.300781 22.738281 11.300781 22.691406 11.300781 C 22.683594 11.300781 22.675781 11.296875 22.667969 11.296875 C 22.746094 12.394531 23.238281 13.878906 23.902344 15.203125 C 24.082031 14.566406 24.15625 13.949219 24.0625 13.292969 C 23.996094 12.808594 23.921875 12.308594 23.9375 11.761719 C 23.957031 11.265625 24.011719 10.800781 24.0625 10.347656 C 24.105469 10 23.96875 9.675781 23.980469 9.347656 Z M 26.90625 19.375 C 26.800781 19.359375 26.65625 19.371094 26.480469 19.40625 C 25.640625 19.578125 25.082031 19.625 24.671875 19.597656 C 24.527344 19.699219 24.375 19.792969 24.1875 19.894531 C 23.4375 20.308594 22.769531 20.734375 22.683594 21.332031 L 22.683594 22.109375 C 23.5625 22.152344 24.738281 21.605469 25.417969 21.292969 C 26.691406 20.703125 27.652344 19.472656 26.90625 19.375 Z M 13.113281 19.683594 C 12.378906 20.121094 11.550781 20.550781 11 20.667969 C 9.042969 21.1875 10.253906 21.796875 10.949219 21.863281 C 11.6875 22.046875 13.5 22.457031 14.667969 21.503906 C 14.667969 21.503906 14.667969 21.503906 14.667969 21.5 L 14.667969 20.769531 C 14.667969 20.628906 14.671875 20.488281 14.683594 20.339844 C 14.683594 20.261719 14.6875 20.15625 14.6875 20.0625 C 14.597656 20.027344 14.488281 19.996094 14.371094 19.964844 Z M 13.113281 19.683594 "/>
</g>
</svg>
